# xmcd CD database generated by RipIT
#
# Track frame offsets:
# 150
# 19398
# 36116
# 55730
# 60556
# 81295
# 103604
# 123353
# 153363
# 178281
# 197283
# 218416
#
# Disc length: 3169 seconds
#
# Revision: 2
# Processed by: cddbd v1.5.2PL0 Copyright (c) Steve Scherf et al.
# Submitted via: RipIT 3.9.0 www.suwald.com/ripit/ripit.html on 2010-11-16 at 23:04
#
DISCID=990c5f0c
DTITLE=Rufus Beck - Armistead Maupin - Stadtgeschichten CD7
DYEAR=2001
DGENRE=Lesung
TTITLE0=94 Stadtgeschichten CD7
TTITLE1=95 Stadtgeschichten CD7
TTITLE2=96 Stadtgeschichten CD7
TTITLE3=97 Stadtgeschichten CD7
TTITLE4=98 Stadtgeschichten CD7
TTITLE5=99 Stadtgeschichten CD7
TTITLE6=100 Stadtgeschichten CD7
TTITLE7=101 Stadtgeschichten CD7
TTITLE8=102 Stadtgeschichten CD7
TTITLE9=103 Stadtgeschichten CD7
TTITLE10=104 Stadtgeschichten CD7
TTITLE11=105 Stadtgeschichten CD7
EXTD=YEAR: 2001\n
EXTT0=
EXTT1=
EXTT2=
EXTT3=
EXTT4=
EXTT5=
EXTT6=
EXTT7=
EXTT8=
EXTT9=
EXTT10=
EXTT11=
PLAYORDER=
